<svg id="svg" version="1.1" xmlns="http://www.w3.org/2000/svg" xmlns:xlink="http://www.w3.org/1999/xlink" width="400" height="247.10830704521555" viewBox="0, 0,  400, 247.108"><g id="svgg"><path id="path0" d="M238.127 76.089 C 238.089 94.919,238.053 97.531,237.833 97.670 C 237.696 97.757,237.667 97.829,237.770 97.831 C 237.873 97.832,238.843 96.240,239.927 94.292 C 241.011 92.344,242.409 89.861,243.032 88.774 C 243.656 87.687,244.167 86.772,244.167 86.741 C 244.167 86.710,244.419 86.249,244.727 85.717 C 247.060 81.693,247.361 81.044,247.922 78.833 C 248.185 77.796,248.250 73.986,248.017 73.233 C 247.935 72.967,247.739 72.300,247.581 71.750 C 247.329 70.873,247.026 70.237,245.832 68.083 C 245.679 67.808,245.305 67.133,245.000 66.583 C 244.695 66.033,244.295 65.321,244.111 65.000 C 243.928 64.679,243.612 64.117,243.410 63.750 C 243.208 63.383,242.744 62.558,242.380 61.917 C 242.016 61.275,241.396 60.150,241.002 59.417 C 240.609 58.683,240.212 57.989,240.121 57.873 C 239.922 57.619,239.505 56.862,238.976 55.792 C 238.761 55.356,238.524 55.000,238.449 55.000 C 238.375 55.000,238.360 54.925,238.417 54.833 C 238.473 54.742,238.441 54.667,238.345 54.667 C 238.224 54.667,238.157 61.295,238.127 76.089 M268.944 136.944 C 268.883 137.006,268.833 153.881,268.833 174.444 L 268.833 211.833 274.500 211.833 L 280.167 211.833 280.167 174.333 L 280.167 136.833 274.611 136.833 C 271.556 136.833,269.006 136.883,268.944 136.944 M87.417 138.833 C 85.116 139.108,82.389 139.657,80.853 140.155 C 80.268 140.345,79.726 140.500,79.647 140.500 C 79.569 140.500,78.443 140.954,77.146 141.509 C 72.446 143.519,67.764 146.855,64.484 150.531 C 63.805 151.292,63.157 152.013,63.044 152.134 C 58.147 157.333,54.648 167.232,54.672 175.818 C 54.687 181.277,55.901 187.116,57.924 191.463 C 58.149 191.947,58.333 192.368,58.333 192.400 C 58.333 192.554,60.260 195.832,60.877 196.729 C 62.783 199.496,66.430 203.413,68.917 205.363 C 73.605 209.041,79.274 211.613,84.667 212.509 C 91.116 213.580,96.276 213.345,102.960 211.675 C 112.530 209.284,123.375 199.355,126.744 189.901 C 126.904 189.451,127.099 188.933,127.176 188.750 C 127.571 187.814,128.111 185.802,128.652 183.250 C 129.903 177.354,129.290 168.889,127.186 163.000 C 123.049 151.421,112.018 141.675,100.583 139.496 C 100.033 139.391,99.021 139.194,98.333 139.058 C 96.872 138.769,89.263 138.613,87.417 138.833 M94.667 150.416 C 97.593 150.758,100.176 151.352,101.333 151.950 C 101.563 152.068,101.825 152.165,101.917 152.166 C 102.265 152.168,104.635 153.413,105.917 154.266 C 111.340 157.878,115.202 163.345,116.559 169.333 C 117.181 172.074,117.243 172.670,117.241 175.833 C 117.228 192.920,103.160 204.209,86.083 200.836 C 80.928 199.817,74.728 195.841,71.787 191.667 C 69.805 188.855,68.557 186.426,67.888 184.083 C 67.285 181.966,67.178 181.433,66.910 179.172 C 65.814 169.949,69.183 161.229,75.900 155.903 C 76.642 155.314,77.326 154.771,77.419 154.696 C 81.311 151.570,88.746 149.725,94.667 150.416 M181.167 159.264 C 174.711 160.112,169.715 162.837,165.250 167.944 C 156.719 177.701,156.384 193.175,164.483 203.294 C 171.024 211.467,179.823 214.610,190.250 212.499 C 194.166 211.706,198.160 209.310,201.022 206.036 L 202.083 204.821 202.128 208.327 L 202.173 211.833 207.753 211.833 L 213.333 211.833 213.333 186.167 L 213.333 160.500 207.750 160.500 L 202.167 160.500 202.163 163.958 L 202.159 167.417 201.375 166.500 C 196.507 160.809,189.233 158.204,181.167 159.264 M239.583 159.250 C 238.667 159.365,237.729 159.502,237.500 159.555 C 234.864 160.166,233.986 160.413,232.696 160.905 C 225.657 163.592,219.213 170.397,217.219 177.250 C 216.183 180.814,216.101 181.431,216.092 185.750 C 216.082 190.608,216.143 191.111,217.214 194.917 C 219.523 203.121,228.274 211.013,236.728 212.514 C 247.656 214.454,256.874 211.538,263.303 204.105 C 264.462 202.766,266.355 199.777,266.152 199.608 C 266.114 199.577,264.921 198.892,263.500 198.087 C 262.079 197.282,260.692 196.495,260.417 196.339 C 260.142 196.182,259.467 195.805,258.917 195.500 C 258.367 195.195,257.603 194.771,257.220 194.557 L 256.523 194.169 255.980 195.118 C 252.383 201.405,242.575 203.967,235.741 200.406 C 223.574 194.066,224.553 176.056,237.333 171.104 C 241.960 169.312,248.484 170.156,252.228 173.032 C 253.753 174.203,256.167 177.147,256.167 177.835 C 256.167 178.222,256.043 178.287,262.500 174.504 C 263.554 173.886,264.773 173.175,265.208 172.924 C 266.142 172.386,266.127 172.504,265.421 171.250 C 260.708 162.876,250.076 157.938,239.583 159.250 M307.417 159.184 C 294.683 160.617,286.186 168.472,283.634 181.167 C 283.282 182.919,283.343 189.702,283.728 191.583 C 286.482 205.047,296.841 213.174,311.235 213.165 C 313.658 213.164,318.249 212.616,319.500 212.180 C 319.729 212.100,320.367 211.903,320.917 211.743 C 324.404 210.728,327.689 208.683,330.667 205.673 C 333.354 202.957,334.069 201.796,333.250 201.481 C 333.049 201.403,330.979 200.188,329.546 199.306 C 328.975 198.954,328.470 198.667,328.424 198.667 C 328.378 198.667,327.929 198.404,327.428 198.083 C 326.926 197.762,326.476 197.500,326.427 197.500 C 326.378 197.500,325.973 197.275,325.526 197.000 C 324.486 196.361,324.558 196.340,323.597 197.552 C 319.820 202.310,312.793 203.983,305.205 201.932 C 300.561 200.677,296.137 196.060,295.229 191.521 L 295.125 191.000 315.452 191.000 L 335.780 191.000 335.990 189.625 C 336.366 187.174,336.097 181.616,335.483 179.167 C 334.660 175.879,332.677 171.482,331.179 169.626 C 327.703 165.316,325.443 163.364,321.854 161.572 C 317.910 159.603,312.153 158.651,307.417 159.184 M158.417 159.610 C 152.982 160.053,148.445 162.862,145.944 167.333 L 145.338 168.417 145.336 164.458 L 145.333 160.500 139.667 160.500 L 134.000 160.500 134.000 186.167 L 134.000 211.833 139.667 211.833 L 145.333 211.833 145.333 197.685 C 145.333 181.082,145.328 181.138,147.129 177.861 C 149.059 174.350,153.678 171.931,158.875 171.709 L 161.000 171.619 161.000 165.559 L 161.000 159.500 160.042 159.528 C 159.515 159.543,158.783 159.580,158.417 159.610 M313.167 169.562 C 313.396 169.616,313.808 169.707,314.083 169.762 C 317.688 170.493,321.287 173.212,323.112 176.583 C 323.723 177.712,324.833 180.935,324.833 181.580 C 324.833 181.628,318.116 181.667,309.905 181.667 C 295.767 181.667,294.982 181.651,295.062 181.375 C 295.109 181.215,295.233 180.746,295.339 180.333 C 296.759 174.780,301.272 170.651,307.083 169.589 C 308.387 169.350,312.207 169.334,313.167 169.562 M189.000 170.080 C 194.689 171.202,199.104 174.753,200.920 179.667 C 201.073 180.079,201.260 180.567,201.337 180.750 C 202.322 183.103,202.273 188.740,201.242 191.794 C 197.521 202.814,182.725 206.047,174.469 197.643 C 173.582 196.740,172.333 195.101,172.333 194.840 C 172.333 194.745,172.277 194.667,172.208 194.667 C 171.818 194.667,170.584 191.257,170.257 189.275 C 169.293 183.437,170.802 178.359,174.655 174.478 C 177.153 171.961,179.447 170.782,183.333 170.017 C 184.545 169.778,187.645 169.813,189.000 170.080 " stroke="none" fill="#1c4ca4" fill-rule="evenodd"></path><path id="path1" d="M152.996 53.949 C 152.402 55.021,151.650 56.390,151.324 56.991 C 150.997 57.592,150.426 58.608,150.054 59.250 C 149.681 59.892,149.113 60.904,148.791 61.500 C 148.469 62.096,147.377 64.059,146.365 65.863 C 141.292 74.901,141.302 76.924,146.455 86.132 C 149.131 90.912,149.407 91.406,150.333 93.083 C 150.880 94.073,151.767 95.637,152.697 97.250 C 152.961 97.708,153.221 98.215,153.275 98.375 C 153.369 98.657,169.167 98.862,169.167 98.582 C 169.167 98.535,168.672 97.814,168.067 96.978 C 166.208 94.408,164.782 91.876,163.340 88.583 C 160.231 81.484,160.259 69.932,163.402 63.083 C 163.529 62.808,163.804 62.171,164.015 61.667 C 164.405 60.735,164.642 60.271,165.528 58.708 L 166.024 57.833 174.221 57.839 L 182.417 57.844 181.917 58.275 C 181.642 58.512,181.004 59.051,180.500 59.472 C 176.931 62.455,173.844 66.946,172.988 70.399 C 172.384 72.837,172.312 73.394,172.299 75.761 C 172.285 78.244,172.354 78.777,173.026 81.417 C 174.039 85.398,177.382 90.303,180.921 93.001 C 183.478 94.951,186.671 96.524,189.500 97.227 L 190.417 97.455 190.460 104.061 L 190.504 110.667 175.669 110.667 C 159.927 110.667,160.522 110.636,161.057 111.421 C 161.180 111.602,161.659 112.462,162.121 113.333 C 165.320 119.370,165.795 120.070,167.774 121.664 C 169.062 122.701,170.828 123.633,172.417 124.114 C 173.971 124.585,217.037 124.583,218.583 124.112 C 220.797 123.438,222.599 122.359,224.210 120.742 C 225.508 119.440,225.967 118.725,228.218 114.500 C 228.584 113.813,229.172 112.737,229.525 112.110 C 229.878 111.483,230.167 110.902,230.167 110.818 C 230.167 110.728,223.075 110.667,212.667 110.667 L 195.167 110.667 195.167 104.265 L 195.167 97.863 196.625 97.763 C 202.125 97.384,206.347 95.799,210.250 92.650 C 211.667 91.507,213.714 89.345,214.149 88.533 C 214.249 88.346,214.432 88.092,214.555 87.969 C 215.138 87.386,216.910 83.832,217.323 82.417 C 218.162 79.547,218.500 77.415,218.500 75.000 C 218.500 70.876,217.429 66.945,215.312 63.303 C 214.956 62.690,214.570 62.090,214.455 61.969 C 214.340 61.849,214.102 61.525,213.926 61.250 C 213.483 60.555,212.192 59.165,210.821 57.906 C 210.056 57.204,207.778 55.500,207.604 55.500 C 207.550 55.500,207.148 55.281,206.711 55.014 C 205.725 54.411,203.344 53.420,202.053 53.077 C 198.260 52.067,196.791 52.011,174.079 52.005 L 154.075 52.000 152.996 53.949 " stroke="none" fill="#0c346c" fill-rule="evenodd"></path><path id="path2" d="M174.000 28.446 C 170.466 28.804,166.613 31.574,164.607 35.197 C 163.964 36.360,161.500 41.167,161.500 41.259 C 161.500 41.306,171.081 41.342,182.792 41.340 C 197.101 41.338,204.329 41.394,204.833 41.512 C 205.246 41.608,205.790 41.729,206.042 41.779 C 206.294 41.830,206.501 41.956,206.503 42.061 C 206.504 42.165,206.578 42.137,206.667 42.000 C 206.774 41.833,206.829 41.819,206.831 41.958 C 206.832 42.077,207.044 42.167,207.325 42.167 C 207.595 42.167,207.877 42.274,207.950 42.405 C 208.023 42.536,208.062 39.486,208.036 35.627 C 207.999 30.061,208.034 28.582,208.203 28.474 C 208.404 28.346,175.250 28.319,174.000 28.446 " stroke="none" fill="#1c75e5" fill-rule="evenodd"></path><path id="path3" d="M208.208 28.435 C 208.047 28.507,208.000 30.064,208.000 35.407 L 208.000 42.287 207.542 42.204 C 207.290 42.158,207.121 42.162,207.167 42.211 C 207.213 42.260,207.438 42.327,207.667 42.359 C 207.896 42.391,208.121 42.457,208.167 42.506 C 208.213 42.554,208.775 42.813,209.417 43.080 C 217.917 46.617,224.490 53.273,228.346 62.250 C 228.968 63.698,229.932 67.052,230.239 68.833 C 230.746 71.779,230.833 72.719,230.833 75.250 C 230.833 81.502,228.894 88.388,225.745 93.315 C 224.565 95.163,223.816 96.242,222.976 97.308 L 221.970 98.583 229.595 98.627 C 237.659 98.673,238.050 98.638,237.765 97.896 C 237.721 97.782,237.775 97.658,237.884 97.622 C 238.103 97.549,238.354 54.592,238.138 54.367 C 238.076 54.302,237.762 53.762,237.440 53.167 L 236.854 52.083 232.072 52.039 L 227.289 51.995 226.333 51.110 C 225.808 50.624,225.012 49.931,224.564 49.571 C 224.117 49.211,223.651 48.823,223.530 48.708 C 223.409 48.594,223.254 48.500,223.186 48.500 C 223.118 48.500,222.911 48.359,222.725 48.186 C 222.390 47.873,217.394 44.667,217.242 44.667 C 217.199 44.667,216.565 44.292,215.833 43.833 C 215.102 43.375,214.461 43.000,214.410 43.000 C 214.358 43.000,214.040 42.813,213.702 42.583 L 213.089 42.167 221.461 42.167 C 226.066 42.167,229.833 42.120,229.833 42.063 C 229.833 41.840,226.270 35.045,225.715 34.208 C 224.065 31.722,221.229 29.573,218.500 28.740 C 217.584 28.460,208.739 28.198,208.208 28.435 M202.792 41.284 C 202.998 41.324,203.335 41.324,203.542 41.284 C 203.748 41.245,203.579 41.212,203.167 41.212 C 202.754 41.212,202.585 41.245,202.792 41.284 " stroke="none" fill="#1c58b7" fill-rule="evenodd"></path><path id="path4" d="M336.167 155.500 C 336.167 155.960,336.213 156.000,336.750 156.000 L 337.333 156.000 337.333 157.833 L 337.333 159.667 337.917 159.667 L 338.500 159.667 338.500 157.833 L 338.500 156.000 339.083 156.000 C 339.620 156.000,339.667 155.960,339.667 155.500 L 339.667 155.000 337.917 155.000 L 336.167 155.000 336.167 155.500 M339.833 157.333 L 339.833 159.667 340.409 159.667 L 340.985 159.667 341.034 158.458 L 341.083 157.250 341.558 158.042 C 342.153 159.035,342.291 159.027,342.953 157.953 L 343.489 157.083 343.495 158.375 L 343.500 159.667 344.000 159.667 L 344.500 159.667 344.500 157.333 L 344.500 155.000 343.952 155.000 C 343.466 155.000,343.341 155.104,342.848 155.917 C 342.543 156.421,342.267 156.833,342.235 156.833 C 342.203 156.833,341.913 156.421,341.591 155.917 C 341.062 155.091,340.946 155.000,340.419 155.000 L 339.833 155.000 339.833 157.333 " stroke="none" fill="#040404" fill-rule="evenodd"></path></g></svg>