<?xml version="1.0" encoding="utf-8"?>
<!-- Generator: Adobe Illustrator 22.1.0, SVG Export Plug-In . SVG Version: 6.00 Build 0)  -->
<svg version="1.1" id="Layer_1" xmlns="http://www.w3.org/2000/svg" xmlns:xlink="http://www.w3.org/1999/xlink" x="0px" y="0px"
	 viewBox="0 0  400 247.108" style="enable-background:new 0 0  400 247.108;" xml:space="preserve">
<style type="text/css">
	.st0{fill:#1F4CA3;}
	.st1{fill:none;stroke:#F70303;stroke-miterlimit:10;}
	.st2{fill:none;stroke:#000000;stroke-miterlimit:10;}
	.st3{fill:#FFFFFF;}
	.st4{fill:#0E316E;}
	.st5{fill:url(#XMLID_31_);}
	.st6{fill:url(#XMLID_61_);}
	.st7{fill:url(#XMLID_62_);}
	.st8{fill:none;stroke:url(#XMLID_63_);stroke-width:3;stroke-miterlimit:10;}
	.st9{fill:none;stroke:url(#XMLID_64_);stroke-width:3;stroke-miterlimit:10;}
	.st10{fill:#1E85FF;}
	.st11{fill:#F79900;}
	.st12{fill:#FFB316;}
	.st13{fill:#F7F7F7;}
	.st14{fill:url(#XMLID_65_);}
	.st15{fill:url(#XMLID_66_);}
	.st16{fill:none;}
	.st17{fill:url(#XMLID_67_);}
</style>
<g id="XMLID_4_">
	<path id="XMLID_2_" class="st0" d="M598,289.9c-18.6,18.6-41.4,27.9-68.2,27.9c-26.8,0-49.6-9.3-68.2-27.9
		c-18.6-18.6-27.9-41.4-27.9-68.2c0-26.8,9.3-49.6,27.9-68.2c18.6-18.6,41.4-27.9,68.2-27.9c26.8,0,49.6,9.3,68.2,27.9
		c18.6,18.6,27.9,41.4,27.9,68.2C625.9,248.5,616.6,271.3,598,289.9z M483.1,269.2c12.6,12.6,28.2,18.9,46.7,18.9
		c18.5,0,34.1-6.3,46.7-18.9c12.6-12.6,18.9-28.5,18.9-47.5c0-19.1-6.3-34.9-18.9-47.5c-12.6-12.6-28.2-18.9-46.7-18.9
		c-18.5,0-34.1,6.3-46.7,18.9c-12.6,12.6-18.9,28.5-18.9,47.5C464.1,240.8,470.4,256.6,483.1,269.2z"/>
	<path id="XMLID_13_" class="st0" d="M667.2,204.2c7.2-16.4,20.8-24.6,40.8-24.6v31c-10.9-0.7-20.5,1.9-28.6,7.8
		c-8.1,5.9-12.2,15.7-12.2,29.3v66.7h-28.6V182h28.6V204.2z"/>
	<path id="XMLID_15_" class="st0" d="M814.8,182h28.6v132.4h-28.6v-19.1c-10.8,15-26.2,22.5-46.3,22.5c-18.2,0-33.7-6.8-46.6-20.3
		c-12.9-13.5-19.3-30-19.3-49.4c0-19.6,6.4-36.1,19.3-49.5c12.9-13.4,28.4-20.1,46.6-20.1c20.1,0,35.6,7.4,46.3,22.2V182z
		 M743,278.5c7.9,8,17.9,12.1,29.9,12.1c12,0,22-4,29.9-12.1c7.9-8,11.9-18.1,11.9-30.3c0-12.2-4-22.3-11.9-30.3
		c-7.9-8-17.9-12.1-29.9-12.1c-12,0-22,4-29.9,12.1c-7.9,8-11.9,18.1-11.9,30.3C731.1,260.4,735,270.5,743,278.5z"/>
	<path id="XMLID_18_" class="st0" d="M920.3,317.8c-20,0-36.6-6.7-49.9-20.1c-13.3-13.4-20-29.9-20-49.5c0-19.8,6.7-36.3,20-49.7
		c13.3-13.3,30-20,49.9-20c12.9,0,24.6,3.1,35.2,9.3c10.6,6.2,18.5,14.5,23.8,24.9L954.8,227c-3-6.4-7.5-11.3-13.6-15
		c-6.1-3.6-13.1-5.4-21.1-5.4c-11.7,0-21.4,4-29.3,11.9c-7.9,7.9-11.8,17.8-11.8,29.7c0,11.8,3.9,21.7,11.8,29.7
		c7.9,7.9,17.6,11.9,29.3,11.9c7.8,0,14.8-1.9,21.1-5.6c6.3-3.7,11-8.6,14.2-14.8l24.6,14c-5.7,10.6-13.8,19-24.4,25.2
		C945,314.7,933.2,317.8,920.3,317.8z"/>
	<path id="XMLID_20_" class="st0" d="M987.3,314.4V121.1h28.6v193.3H987.3z"/>
	<path id="XMLID_25_" class="st0" d="M1054.5,260.4c2.1,10.1,7,17.8,14.6,23.2c7.6,5.4,16.9,8.1,27.8,8.1c15.2,0,26.6-5.5,34.2-16.4
		l23.6,13.8c-13.1,19.2-32.4,28.9-58,28.9c-21.5,0-38.9-6.6-52.2-19.7c-13.2-13.2-19.9-29.8-19.9-49.9c0-19.8,6.5-36.3,19.6-49.7
		c13.1-13.3,29.8-20,50.3-20c19.4,0,35.4,6.8,47.8,20.4c12.4,13.6,18.7,30.1,18.7,49.5c0,3-0.4,7-1.1,11.9H1054.5z M1054.3,237h77.9
		c-1.9-10.8-6.4-18.9-13.4-24.4c-7-5.5-15.1-8.2-24.5-8.2c-10.6,0-19.4,2.9-26.5,8.7C1060.7,219,1056.2,227,1054.3,237z"/>
</g>
<g id="XMLID_1_">
	<path id="XMLID_21_" class="st4" d="M255,277.4c0,0,1.9,0,2.4,0c6-0.1,12.5-1.2,17.9-3c0.8-0.3,1.8-0.6,2.6-0.9c1-0.4,2-0.8,3-1.2
		c0.4-0.2,0.8-0.4,1.2-0.6c0.7-0.4,1.5-0.7,2.2-1.1c1.8-1,3.6-2,5.3-3.2c0.3-0.2,0.6-0.4,1-0.7c0,0,0.1-0.1,0.1-0.1
		c0.3-0.2,0.6-0.4,0.9-0.7c0.3-0.2,0.5-0.4,0.8-0.6c0.6-0.4,1.1-0.9,1.7-1.3c0.2-0.2,0.5-0.4,0.7-0.6c0.2-0.2,0.4-0.4,0.6-0.6
		c0.3-0.2,0.5-0.4,0.7-0.7c1.6-1.4,3-2.9,4.4-4.5c0.3-0.3,0.5-0.6,0.8-0.9c0.2-0.2,0.4-0.5,0.6-0.7c0.2-0.3,0.4-0.5,0.7-0.8
		c0,0,0.1-0.1,0.1-0.1c0.2-0.3,0.4-0.6,0.6-0.8c0.3-0.4,0.6-0.8,0.8-1.1c0.2-0.2,0.3-0.5,0.5-0.7c0.2-0.3,0.4-0.6,0.6-0.9
		c0,0,0-0.1,0.1-0.1c0.2-0.3,0.4-0.6,0.6-0.8c0.7-1.1,1.3-2.1,1.9-3.3c0.2-0.3,0.3-0.5,0.4-0.8c0.4-0.7,0.7-1.4,1-2.1
		c0.2-0.4,0.4-0.8,0.6-1.2c0,0,0-0.1,0.1-0.2c0.4-0.8,0.7-1.6,1-2.4c2.6-6.6,4.1-14,4.1-21.6c0-32.1-26-58.1-58.1-58.1
		c-2,0-4,0.1-5.9,0.1H149.1L124,205.4c-5.6,9.7-5.6,22.9,0,32.6l23.5,42h40.1c-13.3-17-21.3-36.6-21.3-58.7
		c0-17.8,5.2-34.5,14.2-48.5c0,0,0.1,1.2,0.1,1.2H223c-15.5,11-27.1,26.7-27.1,46.8c0,28.8,24.1,51.2,47.1,55.8V311h-76.6l9.9,17.7
		c5.6,9.7,15.9,16.3,27.1,16.3h104.7c11.2,0,21.6-6.6,27.1-16.3l9.9-17.7H255V277.4z"/>
	<linearGradient id="XMLID_31_" gradientUnits="userSpaceOnUse" x1="168.4584" y1="189.5" x2="391.8141" y2="189.5">
		<stop  offset="0" style="stop-color:#1E85FF"/>
		<stop  offset="1" style="stop-color:#1F4CA3"/>
	</linearGradient>
	<path id="XMLID_88_" class="st5" d="M387.6,205.4L362.5,161h-24.8c-9.6-11-22.6-18-37.6-28h44.3l-9.1-17c-5.6-9.7-15.9-17-27.1-17
		H203.5c-11.2,0-21.6,6.9-27.1,16.6l-7.9,14.4h0.3h88.1c0.3-1,0.6-0.4,0.9-0.4c0.3,0,0.5-0.2,0.8-0.2c0.7,0,1.4-0.1,2-0.1
		c0.3,0,0.6,0.1,0.9,0.1c-1,0-1.8,0.6-2.9,0.6h3.6v-0.7c0,0,0.1,0,0.2,0c47.6,2.3,85.3,42.2,85.3,90.3c0,22.9-8.7,43.4-22.9,60.4
		h39.5l23.5-42C393.2,228.3,393.2,215.1,387.6,205.4z"/>
</g>
<g id="XMLID_267_">
	<path id="XMLID_268_" d="M1168.1,147.1v1.8h-2.5v7.6h-1.8v-7.6h-2.5v-1.8H1168.1z"/>
	<path id="XMLID_270_" d="M1178.2,147.1v9.4h-1.8v-6.1l-2.6,4.3l-0.2,0l-2.6-4.3v6h-1.8v-9.4h1.9l2.7,4.4l2.7-4.4H1178.2z"/>
</g>
</svg>
